<svg xmlns="http://www.w3.org/2000/svg" viewBox="0 0 128 128" fill="none" stroke="black" stroke-width="3"
    stroke-miterlimit="10" stroke-linecap="round">
    <g>
        <path class="st0" d="M39.98,75.042c0.21-1.217,0.761-1.862,1.641-2.615c2.243-1.918,10.762-2.145,17.174-1.89
	c0.811,0.032,0.832,1.229,0.023,1.3c-4.311,0.377-7.807,0.014-11.592,1.635c-2.496,1.069-4.032,2.492-3.565,4.374
	c0.092,0.372,0.505,0.569,0.87,0.45c8.957-2.918,12.901-0.761,18.75-1.689c5.885-0.934,12.908-1.133,20.513-1.772
	c0.256-0.021,0.471-0.218,0.517-0.471c0.786-4.236,1.171-7.018,0.725-11.912c-0.382-4.187-3.903-8.318-5.105-9.34
	c-0.18-0.153-0.261-0.39-0.216-0.622c0.158-0.814,0.297-2.921-1.545-5.705c-0.044-0.067-0.103-0.129-0.168-0.176
	c-3.945-2.83-9.097-1.601-9.639-1.46c-0.035,0.009-0.059,0.017-0.092,0.032c-0.38,0.168-3.022,1.442-4.281,4.81
	c-0.089,0.238-0.305,0.412-0.557,0.438c-9.049,0.941-9.57,2.073-10.506,3.757c-0.706,1.27,0.004,3.326,0.415,4.3
	c0.134,0.318-0.004,0.685-0.313,0.837l-0.01,0.005c-0.114,0.056-0.24,0.077-0.366,0.062c-2.756-0.335-15.463-1.767-18.061,4.962
	c-1.565,4.052,0.172,7.942,1.123,9.795C35.714,74.147,38.898,81.323,39.98,75.042z" />
        <path class="st0" d="M57.254,60.85c-0.422,0.268-0.402,0.891,0.037,1.131c0.595,0.324,1.311,0.75,1.915,1.209
	c1.303,0.99,2.7,3.701,7.188,3.336c2.898-0.236,5.186-1.471,6.443-2.317c0.787-0.53,1.619-0.991,2.494-1.356
	c1.023-0.427,2.223-1.017,2.223-1.435c0-0.73-2.763-1.564-5.838-3.753c-2.035-1.449-5.852-1.208-8.2-0.88
	c-1.215,0.17-2.346,0.719-3.235,1.565C59.411,59.176,58.229,60.23,57.254,60.85z" />
        <path class="st0" d="M68.271,51.365l6.661,0.578c0.295,0.026,0.554-0.178,0.568-0.447c0.049-0.933-0.182-2.888-2.938-3.097
	c-2.563-0.195-4.034,1.326-4.679,2.24C67.673,50.937,67.884,51.332,68.271,51.365z" />
        <path class="st0" d="M86.068,53.593c-0.596-0.137-1.032,0.548-0.66,1.033c1.351,1.758,3.333,5.123,3.333,9.727
	c0,4.732-0.451,7.719-0.742,9.153c-0.097,0.479,0.35,0.89,0.82,0.753c2.521-0.731,8.662-3.246,8.662-10.381
	C97.481,57.027,89.738,54.436,86.068,53.593z" />
        <ellipse class="st0" cx="65.705" cy="61.255" rx="1.849" ry="1.698" />
        <path class="st1" d="M38.274,66.619c0,0,0.448-2.29,2.988-2.689" />
    </g>
</svg>